Coordinates
version=1
nRows=49
nColumns=12
inDegrees=yes

Units are S.I. units (second, meters, Newtons, ...)
Angles are in degrees

endheader
time	SC_y	SC_z	SC_x	AC_y	AC_z	AC_x	GH_y	GH_z	GH_yy	EL_x	PS_y
       0.0              -54.96          16.66          22.58          53.31          3.138         -16.65         -46.16          77.54          90.68          16.32          66.67
   0.04685              -54.96          16.66          22.58          53.31          3.135         -16.65         -46.18          77.54          90.66          16.33          66.68
   0.09371              -54.95          16.66          22.58           53.3          3.132         -16.64          -46.2          77.53          90.64          16.33          66.69
    0.1406              -54.95          16.66          22.59           53.3          3.129         -16.64         -46.22          77.52          90.61          16.33          66.69
    0.1874              -54.95          16.65          22.59           53.3          3.125         -16.63         -46.24          77.51          90.59          16.33           66.7
    0.2343              -54.94          16.65          22.59           53.3          3.122         -16.63         -46.26           77.5          90.56          16.34          66.71
    0.2811              -54.94          16.65           22.6          53.29          3.118         -16.62         -46.28          77.49          90.53          16.34          66.72
     0.328              -54.93          16.65           22.6          53.29          3.113         -16.61         -46.31          77.48           90.5          16.35          66.73
    0.3748              -54.92          16.65           22.6          53.28          3.109         -16.61         -46.33          77.47          90.47          16.35          66.75
    0.4217              -54.92          16.65          22.61          53.28          3.104          -16.6         -46.36          77.46          90.43          16.36          66.76
    0.4685              -54.91          16.65          22.61          53.28          3.099         -16.59         -46.39          77.44           90.4          16.36          66.77
    0.5154               -54.9          16.65          22.62          53.27          3.093         -16.58         -46.42          77.43          90.35          16.37          66.79
    0.5622               -54.9          16.65          22.62          53.27          3.087         -16.58         -46.46          77.41          90.31          16.37           66.8
    0.6091              -54.89          16.64          22.63          53.26          3.081         -16.57         -46.49          77.39          90.26          16.38          66.82
    0.6559              -54.88          16.64          22.63          53.26          3.074         -16.55         -46.53          77.38          90.21          16.39          66.84
    0.7028              -54.87          16.64          22.64          53.25          3.066         -16.54         -46.58          77.36          90.15          16.39          66.86
    0.7496              -54.86          16.64          22.65          53.24          3.058         -16.53         -46.63          77.33          90.09           16.4          66.88
    0.7965              -54.85          16.64          22.65          53.23          3.049         -16.52         -46.68          77.31          90.03          16.41           66.9
    0.8434              -54.83          16.63          22.66          53.23          3.039          -16.5         -46.73          77.29          89.95          16.42          66.93
    0.8902              -54.82          16.63          22.67          53.22          3.028         -16.49          -46.8          77.26          89.88          16.43          66.96
    0.9371               -54.8          16.63          22.68          53.21          3.016         -16.47         -46.87          77.23          89.79          16.44          66.99
    0.9839              -54.79          16.62          22.69           53.2          3.003         -16.45         -46.94          77.19          89.69          16.45          67.02
     1.031              -54.77          16.62           22.7          53.18          2.989         -16.43         -47.02          77.15          89.59          16.47          67.06
     1.078              -54.75          16.62          22.72          53.17          2.973          -16.4         -47.12          77.11          89.47          16.48           67.1
     1.124              -54.73          16.61          22.73          53.16          2.955         -16.37         -47.22          77.07          89.34           16.5          67.15
     1.171               -54.7          16.61          22.75          53.14          2.935         -16.34         -47.33          77.01          89.19          16.52           67.2
     1.218              -54.67           16.6          22.77          53.12          2.913         -16.31         -47.46          76.96          89.03          16.54          67.25
     1.265              -54.64          16.59          22.79           53.1          2.888         -16.27          -47.6          76.89          88.85          16.57          67.32
     1.312               -54.6          16.59          22.81          53.08          2.859         -16.23         -47.77          76.82          88.64          16.59          67.39
     1.359              -54.56          16.58          22.84          53.05          2.827         -16.18         -47.95          76.73           88.4          16.63          67.48
     1.406              -54.51          16.57          22.87          53.02          2.791         -16.13         -48.16          76.64          88.13          16.66          67.57
     1.452              -54.46          16.56           22.9          52.98          2.749         -16.06          -48.4          76.53          87.82           16.7          67.68
     1.499               -54.4          16.55          22.94          52.94            2.7         -15.99         -48.68           76.4          87.47          16.75          67.81
     1.546              -54.32          16.53          22.99          52.89          2.644          -15.9         -49.01          76.25          87.05          16.81          67.95
     1.593              -54.24          16.52          23.04          52.84          2.578          -15.8         -49.39          76.08          86.57          16.87          68.12
      1.64              -54.14           16.5          23.11          52.77            2.5         -15.69         -49.83          75.88           86.0          16.95          68.33
     1.687              -54.02          16.47          23.18           52.7          2.408         -15.55         -50.37          75.64          85.32          17.04          68.57
     1.734              -53.87          16.44          23.27           52.6          2.297         -15.38          -51.0          75.35          84.51          17.14          68.85
      1.78               -53.7          16.41          23.39          52.49          2.163         -15.17         -51.78           75.0          83.52          17.28           69.2
     1.827              -53.49          16.37          23.52          52.35          1.999         -14.93         -52.72          74.57          82.32          17.44          69.63
     1.874              -53.23          16.32          23.69          52.18          1.797         -14.62         -53.88          74.04          80.84          17.63          70.15
     1.921               -52.9          16.25           23.9          51.97          1.545         -14.24         -55.33          73.38          78.99          17.88           70.8
     1.968              -52.49          16.17          24.16          51.71          1.228         -13.76         -57.16          72.56          76.66          18.19          71.63
     2.015              -51.97          16.07          24.49          51.37         0.8246         -13.15         -59.48           71.5          73.69          18.59          72.67
     2.062               -51.3          15.94          24.92          50.93         0.3082         -12.36         -62.45          70.15           69.9          19.09          74.01
     2.108              -50.44          15.77          25.47          50.38        -0.3544         -11.36         -66.26          68.42          65.04          19.74          75.73
     2.155              -49.35          15.56          26.16          49.67         -1.201         -10.08         -71.14          66.21          58.82          20.57          77.93
     2.202              -47.97          15.29          27.04          48.77         -2.265         -8.462         -77.26          63.43           51.0          21.61          80.69
     2.249              -46.29          14.96          28.12          47.68         -3.562         -6.496         -84.73          60.04          41.48          22.88          84.06
